<svg width="325" height="325" viewBox="0 0 325 325" fill="none" xmlns="http://www.w3.org/2000/svg">
<path d="M162.818 0.822906C73.349 0.822906 0.817703 73.349 0.817703 162.823C0.817703 252.292 73.349 324.823 162.818 324.823C252.292 324.823 324.818 252.292 324.818 162.823C324.818 73.349 252.292 0.822906 162.818 0.822906Z" fill="#8C52FF"/>
<path d="M267.88 107.979C261.25 113.839 254.01 120.313 247.38 126.172C247.385 126.177 247.385 126.182 247.391 126.188C247.458 126.281 247.521 126.38 247.578 126.495C247.646 126.609 247.693 126.719 247.734 126.833C248.229 127.922 248.516 129.094 248.599 130.281C255.792 123.927 263.594 116.958 270.786 110.599C269.651 109.927 268.656 109.036 267.88 107.979Z" fill="white"/>
<path d="M213.672 108.016C213.568 109.464 213.12 110.854 212.406 112.083C218.432 117.411 225.068 123.349 231.099 128.677C231.411 127.354 232 126.104 232.854 125.042C226.661 119.568 219.859 113.484 213.672 108.016Z" fill="white"/>
<path d="M173.573 128.979C172.057 127.828 170.161 127.12 168.005 127C162.76 126.719 158.974 131.474 158.714 136.318C158.427 141.573 163.172 145.37 168.005 145.63C173.036 145.901 176.719 141.531 177.24 136.896C177.281 136.719 177.307 136.531 177.297 136.318C177.307 136.104 177.281 135.922 177.24 135.745C177.094 134.349 176.708 133.063 176.099 131.932C183.156 125.698 190.516 119.156 197.568 112.922C196.745 111.849 196.151 110.589 195.896 109.214C188.557 115.698 180.911 122.495 173.573 128.979ZM162.599 136.318C162.224 129.328 173.031 129.365 173.406 136.318C173.031 143.297 162.974 143.297 162.599 136.318Z" fill="white"/>
<path d="M213.932 106.563C213.922 106.49 213.911 106.417 213.896 106.349C213.891 106.25 213.88 106.146 213.859 106.042C212.979 101.359 208.651 98.0573 203.911 98.4531C199.089 98.8594 195.578 102.979 195.448 107.724C195.432 108.339 195.484 108.938 195.589 109.521C195.849 110.896 196.438 112.151 197.266 113.229C199.094 115.615 202.078 117.115 205.182 117.021C208.417 116.927 211.182 115.031 212.714 112.391C213.427 111.161 213.875 109.771 213.974 108.323C214.016 107.74 214.005 107.151 213.932 106.563ZM205.182 113.125C201.964 113.411 199.495 110.813 199.339 107.724C199.198 104.938 201.484 102.844 204.026 102.339C207 101.75 209.464 104.182 210.068 106.87C210.318 109.958 208.458 112.828 205.182 113.125Z" fill="white"/>
<path d="M247.885 126.188C247.828 126.078 247.76 125.974 247.698 125.88C247.693 125.875 247.687 125.87 247.687 125.865C244.984 121.594 239.625 120.219 235.141 122.594C234.104 123.141 233.24 123.875 232.547 124.734C231.693 125.797 231.104 127.047 230.792 128.37C230.234 130.734 230.552 133.333 231.792 135.495C234.245 139.786 239.635 140.943 243.932 138.995C247.5 137.375 249.167 133.63 248.906 129.974C248.823 128.792 248.531 127.615 248.042 126.526C248 126.411 247.948 126.302 247.885 126.188ZM242.323 135.443C240.016 136.813 236.896 135.984 235.359 133.859C233.578 131.396 234.255 127.927 236.714 126.198C239.406 124.307 242.953 125.443 244.526 128.156C245.87 130.859 244.87 133.927 242.323 135.443Z" fill="white"/>
<path d="M284.464 102.536C284.328 97.6458 280.208 93.9479 275.505 93.6615C275.401 93.6458 275.297 93.6406 275.182 93.6406C275.073 93.6406 274.969 93.6458 274.865 93.6563C269.979 93.9479 266.312 97.6458 265.901 102.536C265.724 104.682 266.385 106.672 267.573 108.286C268.349 109.344 269.344 110.234 270.479 110.906C272.125 111.885 274.062 112.391 276.01 112.224C280.958 111.807 284.599 107.438 284.464 102.536ZM275.901 108.339C272.437 109.026 269.703 105.724 269.792 102.536C269.875 99.6875 272.5 97.6146 275.182 97.5417C277.99 97.6198 280.338 99.6927 280.573 102.536C280.823 105.49 278.667 107.792 275.901 108.339Z" fill="white"/>
<path d="M88.263 214V200.26H61.5599V148.49H46.1901V214H88.263Z" fill="white"/>
<path d="M97.7038 161.969C102.173 161.969 105.865 159.219 105.865 154.583C105.865 150.036 102.173 147.115 97.7038 147.115C93.2402 147.115 89.5475 150.036 89.5475 154.583C89.5475 159.219 93.2402 161.969 97.7038 161.969ZM104.917 214V165.318H90.4954V214H104.917Z" fill="white"/>
<path d="M125.609 214V186.609C125.609 182.401 126.213 180 127.411 178.37C128.703 176.562 130.849 175.88 133.854 175.88C136.255 175.88 137.974 176.396 139.177 177.682C140.635 179.229 141.234 181.802 141.234 186.609V214H155.661V186.781C155.661 180.771 155.661 176.906 153.771 172.703C151.797 168.234 147.677 164.286 138.062 164.286C132.906 164.286 128.875 165.661 125.609 170.557V165.318H111.187V214H125.609Z" fill="white"/>
<path d="M176.008 214V190.646L193.18 214H210.352L189.232 186.266L209.237 165.318H191.467L176.008 182.401V148.49H161.586V214H176.008Z" fill="white"/>
<path d="M219.194 161.969C223.663 161.969 227.355 159.219 227.355 154.583C227.355 150.036 223.663 147.115 219.194 147.115C214.73 147.115 211.038 150.036 211.038 154.583C211.038 159.219 214.73 161.969 219.194 161.969ZM226.407 214V165.318H211.986V214H226.407Z" fill="white"/>
<path d="M259.209 214V202.323H253.797C251.308 202.323 250.88 200.776 250.88 199.406V176.562H259.292V165.318H250.88V148.49H236.453V165.318H229.755V176.562H236.453V204.297C236.453 210.479 240.573 214 247.703 214H259.209Z" fill="white"/>
</svg>
