<svg width="95" height="48" viewBox="0 0 95 48" fill="none" xmlns="http://www.w3.org/2000/svg">
<path d="M88.0707 5.69653C85.4367 8.02427 82.5606 10.5962 79.9267 12.9239C79.9288 12.926 79.9288 12.928 79.9308 12.9301C79.9577 12.9674 79.9825 13.0067 80.0053 13.0522C80.0322 13.0977 80.0508 13.1412 80.0674 13.1867C80.2639 13.6191 80.3777 14.0847 80.4109 14.5564C83.2683 12.0321 86.3678 9.26367 89.2252 6.73729C88.7742 6.47038 88.379 6.11656 88.0707 5.69653Z" fill="white"/>
<path d="M66.535 5.70947C66.4936 6.28468 66.3157 6.83713 66.0322 7.32544C68.4262 9.44213 71.0622 11.8009 73.4582 13.9176C73.5824 13.392 73.8162 12.8955 74.1555 12.4734C71.6954 10.2987 68.9931 7.88203 66.535 5.70947Z" fill="white"/>
<path d="M50.605 14.0367C50.0029 13.5794 49.2498 13.298 48.3932 13.2504C46.3096 13.1387 44.8053 15.0278 44.7019 16.9521C44.5881 19.0398 46.473 20.5482 48.3932 20.6516C50.3919 20.7592 51.8548 19.0232 52.0617 17.1817C52.0782 17.1114 52.0886 17.0369 52.0844 16.9521C52.0886 16.8672 52.0782 16.7948 52.0617 16.7245C52.0037 16.1699 51.8506 15.6589 51.6085 15.2099C54.4122 12.7332 57.3358 10.1344 60.1374 7.65765C59.8105 7.23141 59.5746 6.73069 59.4732 6.18445C56.5578 8.76048 53.5204 11.4607 50.605 14.0367ZM46.2454 16.9521C46.0965 14.1753 50.3898 14.1898 50.5388 16.9521C50.3898 19.7246 46.3944 19.7246 46.2454 16.9521Z" fill="white"/>
<path d="M66.6385 5.13158C66.6343 5.10261 66.6302 5.07364 66.624 5.04675C66.6219 5.00743 66.6178 4.96605 66.6095 4.92467C66.2598 3.06455 64.5404 1.75273 62.6575 1.90999C60.7415 2.07138 59.347 3.70804 59.2952 5.59299C59.289 5.83714 59.3097 6.07509 59.3511 6.30683C59.4546 6.85307 59.6884 7.35173 60.0174 7.78003C60.7436 8.72768 61.9292 9.32358 63.1624 9.28634C64.4473 9.24909 65.546 8.49594 66.1543 7.44691C66.4378 6.9586 66.6157 6.40615 66.655 5.83094C66.6716 5.5992 66.6674 5.36539 66.6385 5.13158ZM63.1624 7.73865C61.8837 7.85245 60.9029 6.81997 60.8409 5.59299C60.785 4.48602 61.6933 3.65424 62.703 3.45354C63.8845 3.21973 64.8632 4.186 65.1032 5.25366C65.2025 6.48064 64.4639 7.62071 63.1624 7.73865Z" fill="white"/>
<path d="M80.127 12.9319C80.1043 12.8885 80.0774 12.8471 80.0525 12.8099C80.0505 12.8078 80.0484 12.8057 80.0484 12.8036C78.9745 11.107 76.8454 10.5607 75.0639 11.5042C74.6522 11.7215 74.3087 12.0132 74.0335 12.3547C73.6942 12.7767 73.4604 13.2733 73.3362 13.7989C73.1148 14.7383 73.2411 15.7707 73.7335 16.6294C74.708 18.3344 76.8496 18.7937 78.5566 18.0199C79.9739 17.3764 80.636 15.8887 80.5326 14.4362C80.4995 13.9665 80.3836 13.4989 80.1891 13.0664C80.1725 13.0209 80.1518 12.9775 80.127 12.9319ZM77.9172 16.6087C77.0006 17.1529 75.7612 16.8239 75.1508 15.9797C74.4432 15.001 74.7122 13.623 75.6888 12.9361C76.7585 12.185 78.1676 12.636 78.7924 13.7141C79.3263 14.7879 78.929 16.0066 77.9172 16.6087Z" fill="white"/>
<path d="M94.6585 3.53402C94.6048 1.59114 92.9681 0.122077 91.0997 0.0082764C91.0583 0.00206897 91.0169 0 90.9714 0C90.928 0 90.8866 0.00206884 90.8452 0.0062073C88.9044 0.122077 87.4477 1.59114 87.2843 3.53402C87.2139 4.38649 87.4767 5.17689 87.9484 5.81831C88.2567 6.23834 88.6519 6.59216 89.103 6.85907C89.7568 7.24806 90.5265 7.44876 91.3004 7.38255C93.266 7.21702 94.7123 5.48105 94.6585 3.53402ZM91.2569 5.839C89.881 6.11212 88.7947 4.80031 88.8299 3.53402C88.863 2.40223 89.9058 1.57872 90.9714 1.54976C92.0867 1.58079 93.0198 2.40429 93.1129 3.53402C93.2122 4.7072 92.3556 5.62175 91.2569 5.839Z" fill="white"/>
<path d="M16.7142 47.8166V42.3583H6.10593V21.7914H0V47.8166H16.7142Z" fill="white"/>
<path d="M20.4647 27.1422C22.24 27.1422 23.707 26.0497 23.707 24.2082C23.707 22.4019 22.24 21.2411 20.4647 21.2411C18.6915 21.2411 17.2245 22.4019 17.2245 24.2082C17.2245 26.0497 18.6915 27.1422 20.4647 27.1422ZM23.3304 47.8125V28.4726H17.6011V47.8125H23.3304Z" fill="white"/>
<path d="M31.5508 47.816V36.9346C31.5508 35.2627 31.7908 34.3089 32.2667 33.6612C32.7798 32.9433 33.6323 32.6722 34.8262 32.6722C35.78 32.6722 36.4628 32.8771 36.9408 33.3881C37.5201 34.0027 37.7581 35.0248 37.7581 36.9346V47.816H43.4895V37.0028C43.4895 34.6151 43.4895 33.0798 42.7384 31.4101C41.9542 29.6348 40.3176 28.0664 36.498 28.0664C34.4496 28.0664 32.8481 28.6126 31.5508 30.5576V28.4761H25.8214V47.816H31.5508Z" fill="white"/>
<path d="M51.5728 47.8166V38.5387L58.3947 47.8166H65.2165L56.8263 36.7986L64.7737 28.4767H57.7139L51.5728 35.2633V21.7914H45.8435V47.8166H51.5728Z" fill="white"/>
<path d="M68.729 27.1422C70.5043 27.1422 71.9713 26.0497 71.9713 24.2082C71.9713 22.4019 70.5043 21.2411 68.729 21.2411C66.9558 21.2411 65.4888 22.4019 65.4888 24.2082C65.4888 26.0497 66.9558 27.1422 68.729 27.1422ZM71.5947 47.8125V28.4726H65.8654V47.8125H71.5947Z" fill="white"/>
<path d="M84.6255 47.8166V43.1776H82.4757C81.4867 43.1776 81.317 42.5631 81.317 42.0189V32.9438H84.6586V28.4767H81.317V21.7914H75.5856V28.4767H72.9247V32.9438H75.5856V43.9618C75.5856 46.4178 77.2222 47.8166 80.0548 47.8166H84.6255Z" fill="white"/>
</svg>
